#!OML:ASF H:\LiuWeirdWalks\Patient Classification 1\Patient 1\Session 1\male.ASF
:FULLY-SPECIFIED
:DEGREES
509
root 0.0990289 19.5927 3.98474 0.830121 10.3087 -10.3188
lowerback 14.4908 -0.575855 3.11257
upperback -0.0691803 0.186697 4.87585
thorax -8.24726 0.0791742 3.43136
lowerneck -21.042 -0.325782 3.23878
upperneck 16.554 -0.614571 -3.88948
head 8.59737 -0.508198 -1.93547
rclavicle 1.38901e-014 -1.72943e-014
rhumerus -57.0931 12.6199 -73.6867
rradius 67.8186
rwrist -11.2457
rhand -18.1437 -7.32843
rfingers 7.12502
rthumb 8.13166 -37.152
lclavicle 1.38901e-014 -1.72943e-014
lhumerus -36.2057 -6.73998 58.2424
lradius 89.3024
lwrist 7.70971
lhand -25.6234 -19.6703
lfingers 7.12502
lthumb 0.909517 10.3075
rfemur -27.1763 -2.95144 20.4744
rtibia 55.0607
rfoot 37.3939 -10.2281
rtoes 18.9408
lfemur -8.09224 -2.16417 -14.85
ltibia 42.932
lfoot -4.61383 4.59306
ltoes -14.1362
510
root 0.0967602 19.5869 4.21534 0.786858 10.5266 -10.7883
lowerback 14.4218 -0.46639 3.44712
upperback -0.0566212 0.389126 4.93157
thorax -8.20121 0.165066 3.25657
lowerneck -21.0888 -0.564233 3.08771
upperneck 16.5321 -0.943941 -3.66425
head 8.58665 -0.648447 -1.87721
rclavicle 3.16316e-014 -3.38928e-014
rhumerus -57.2801 12.1126 -74.2799
rradius 66.6554
rwrist -11.5004
rhand -18.1768 -7.3585
rfingers 7.12502
rthumb 8.09967 -37.1833
lclavicle 3.16316e-014 -3.38928e-014
lhumerus -37.5148 -6.08361 58.4552
lradius 88.0082
lwrist 7.80075
lhand -25.6401 -19.6191
lfingers 7.12502
lthumb 0.893335 10.3588
rfemur -25.1494 -2.60331 21.3649
rtibia 54.4977
rfoot 37.6254 -10.3736
rtoes 19.1501
lfemur -9.76525 -2.00181 -14.3397
ltibia 42.5422
lfoot -8.00979 5.09099
ltoes -13.7499
511
root 0.0917716 19.5699 4.4469 0.857576 10.7543 -11.0931
lowerback 14.294 -0.350025 3.60443
upperback -0.0790339 0.562598 4.92335
thorax -8.15733 0.242687 3.1196
lowerneck -21.0754 -0.781465 3.01383
upperneck 16.4325 -1.25799 -3.48358
head 8.54006 -0.781311 -1.84292
rclavicle 5.30507e-015 -3.926e-014
rhumerus -57.3917 11.6228 -74.9327
rradius 65.4224
rwrist -11.7622
rhand -18.2049 -7.38724
rfingers 7.12502
rthumb 8.07254 -37.2131
lclavicle 5.30507e-015 -3.926e-014
lhumerus -38.8021 -5.39731 58.5504
lradius 86.6379
lwrist 7.89615
lhand -25.6816 -19.5806
lfingers 7.12502
lthumb 0.8533 10.3974
rfemur -23.2402 -2.31741 22.1321
rtibia 53.9685
rfoot 37.7552 -10.6346
rtoes 19.3785
lfemur -11.4372 -1.8697 -14.0279
ltibia 41.7028
lfoot -11.2467 4.6745
ltoes -13.4928
512
root 0.0835363 19.5334 4.67808 1.02416 10.9892 -11.2484
lowerback 14.1228 -0.226627 3.60957
upperback -0.136932 0.714117 4.8614
thorax -8.12617 0.314503 3.01624
lowerneck -21.0337 -1.00355 2.92513
upperneck 16.3406 -1.57719 -3.28175
head 8.49227 -0.915254 -1.79933
rclavicle 2.62272e-014 1.19768e-014
rhumerus -57.4521 11.1564 -75.6241
rradius 64.1379
rwrist -12.0457
rhand -18.2273 -7.3925
rfingers 7.12502
rthumb 8.05095 -37.2191
lclavicle 2.62272e-014 1.19768e-014
lhumerus -39.9955 -4.65556 58.5436
lradius 85.0882
lwrist 7.96301
lhand -25.7389 -19.59
lfingers 7.12502
lthumb 0.79788 10.3882
rfemur -21.4593 -2.10076 22.7814
rtibia 53.4852
rfoot 37.8121 -10.981
rtoes 19.5927
lfemur -13.1198 -1.77186 -13.8969
ltibia 40.5072
lfoot -14.0975 3.82608
ltoes -13.3309
513
root 0.0768604 19.5019 4.91244 1.26394 11.224 -11.2826
lowerback 13.9084 -0.101459 3.49721
upperback -0.206324 0.843132 4.76161
thorax -8.08242 0.379334 2.94366
lowerneck -21.0033 -1.21833 2.8078
upperneck 16.2735 -1.88309 -3.05158
head 8.45703 -1.04179 -1.74013
rclavicle 1.34459e-014 2.6985e-014
rhumerus -57.4252 10.7294 -76.3308
rradius 62.7992
rwrist -12.3361
rhand -18.2368 -7.40731
rfingers 7.12502
rthumb 8.04178 -37.2343
lclavicle 1.34459e-014 2.6985e-014
lhumerus -41.1013 -3.83734 58.4405
lradius 83.3878
lwrist 7.97247
lhand -25.8392 -19.6473
lfingers 7.12502
lthumb 0.701075 10.3313
rfemur -19.6956 -1.95879 23.3325
rtibia 52.944
rfoot 37.824 -11.3408
rtoes 19.6571
lfemur -14.7282 -1.72183 -13.92
ltibia 38.9667
lfoot -16.5224 2.45509
ltoes -13.2078
514
root 0.0712568 19.4657 5.14814 1.54618 11.4525 -11.2755
lowerback 13.6609 0.0196542 3.35349
upperback -0.283669 0.959604 4.65045
thorax -8.02824 0.439176 2.87987
lowerneck -20.9693 -1.43052 2.64951
upperneck 16.2243 -2.17828 -2.79291
head 8.42971 -1.1628 -1.66345
rclavicle -1.11754e-014 -2.41648e-014
rhumerus -57.3276 10.3433 -77.0357
rradius 61.4214
rwrist -12.5993
rhand -18.2297 -7.38121
rfingers 7.12502
rthumb 8.04862 -37.208
lclavicle -1.11754e-014 -2.41648e-014
lhumerus -42.1228 -2.94602 58.2554
lradius 81.5373
lwrist 7.93766
lhand -25.9518 -19.7589
lfingers 7.12502
lthumb 0.592296 10.22
rfemur -17.9688 -1.88614 23.8602
rtibia 52.364
rfoot 37.7994 -11.6453
rtoes 19.5137
lfemur -16.2909 -1.69274 -13.9994
ltibia 37.2093
lfoot -18.5121 1.08768
ltoes -13.0958
515
root 0.0679396 19.4239 5.38527 1.84603 11.6628 -11.2707
lowerback 13.3889 0.135893 3.22701
upperback -0.363376 1.072 4.5417
thorax -7.96217 0.496508 2.81056
lowerneck -20.8929 -1.6296 2.47322
upperneck 16.1636 -2.44893 -2.53454
head 8.39352 -1.27349 -1.58004
rclavicle 3.45388e-015 -6.41081e-015
rhumerus -57.1708 10.0078 -77.7355
rradius 60.0164
rwrist -12.8159
rhand -18.2248 -7.32528
rfingers 7.12502
rthumb 8.05334 -37.1518
lclavicle 3.45388e-015 -6.41081e-015
lhumerus -43.0783 -1.98941 58.0003
lradius 79.5768
lwrist 7.85997
lhand -26.0837 -19.8368
lfingers 7.12502
lthumb 0.464928 10.1424
rfemur -16.2554 -1.88372 24.3952
rtibia 51.7152
rfoot 37.7717 -11.8076
rtoes 19.1255
lfemur -17.7861 -1.66684 -14.0872
ltibia 35.3025
lfoot -20.092 -0.0447383
ltoes -13.0113
516
root 0.0673663 19.374 5.62292 2.14163 11.8549 -11.3274
lowerback 13.0951 0.245315 3.18274
upperback -0.43761 1.18914 4.45358
thorax -7.87682 0.553467 2.71682
lowerneck -20.7954 -1.82058 2.27501
upperneck 16.0775 -2.70089 -2.27882
head 8.34721 -1.37739 -1.4909
rclavicle -7.72775e-015 -2.48481e-014
rhumerus -56.954 9.7162 -78.4128
rradius 58.6129
rwrist -13.0114
rhand -18.1775 -7.29135
rfingers 7.12502
rthumb 8.09905 -37.1162
lclavicle -7.72775e-015 -2.48481e-014
lhumerus -43.9663 -0.970613 57.6959
lradius 77.5457
lwrist 7.75784
lhand -26.2327 -19.8811
lfingers 7.12502
lthumb 0.321023 10.0984
rfemur -14.577 -1.94978 24.9881
rtibia 51.0479
rfoot 37.7399 -11.8145
rtoes 18.5883
lfemur -19.2594 -1.6166 -14.1168
ltibia 33.4255
lfoot -21.354 -0.627196
ltoes -12.9569
517
root 0.069526 19.3134 5.85981 2.41351 12.0171 -11.4888
lowerback 12.7944 0.342546 3.25562
upperback -0.494997 1.30964 4.39712
thorax -7.76755 0.608336 2.59106
lowerneck -20.681 -1.97823 2.1195
upperneck 15.9628 -2.90917 -2.07493
head 8.28912 -1.46405 -1.41992
rclavicle 7.8023e-015 -1.92821e-014
rhumerus -56.6641 9.49285 -79.0846
rradius 57.2162
rwrist -13.1354
rhand -18.1253 -7.23949
rfingers 7.12502
rthumb 8.1494 -37.0623
lclavicle 7.8023e-015 -1.92821e-014
lhumerus -44.8138 0.10256 57.3332
lradius 75.5143
lwrist 7.65468
lhand -26.3396 -19.8777
lfingers 7.12502
lthumb 0.217733 10.1019
rfemur -12.9496 -2.06407 25.6768
rtibia 50.397
rfoot 37.7236 -11.6587
rtoes 17.8968
lfemur -20.7351 -1.50365 -14.0412
ltibia 31.7133
lfoot -22.4241 -0.423408
ltoes -12.8727
518
root 0.075389 19.2403 6.0954 2.63537 12.1481 -11.7584
lowerback 12.4978 0.432758 3.46573
upperback -0.532079 1.44266 4.37242
thorax -7.63617 0.66495 2.42048
lowerneck -20.5497 -2.1347 1.94082
upperneck 15.8346 -3.10751 -1.87591
head 8.22497 -1.54832 -1.34509
rclavicle 4.05769e-014 4.60187e-014
rhumerus -56.3362 9.32803 -79.7448
rradius 55.8585
rwrist -13.2111
rhand -18.0999 -7.15257
rfingers 7.12502
rthumb 8.17389 -36.9745
lclavicle 4.05769e-014 4.60187e-014
lhumerus -45.6115 1.21078 56.9393
lradius 73.4961
lwrist 7.56495
lhand -26.3834 -19.807
lfingers 7.12502
lthumb 0.175402 10.1727
rfemur -11.3661 -2.23035 26.4474
rtibia 49.8007
rfoot 37.748 -11.3701
rtoes 17.1499
lfemur -22.2037 -1.36004 -13.857
ltibia 30.2801
lfoot -23.3464 0.726133
ltoes -12.5955
519
root 0.0838414 19.1536 6.32807 2.80302 12.2419 -12.1533
lowerback 12.2327 0.512496 3.81291
upperback -0.552539 1.58462 4.38482
thorax -7.50174 0.721841 2.21186
lowerneck -20.4139 -2.27654 1.7743
upperneck 15.6819 -3.28467 -1.70023
head 8.15253 -1.62476 -1.27695
rclavicle -6.75868e-015 -3.29983e-014
rhumerus -55.9706 9.23945 -80.4058
rradius 54.5596
rwrist -13.2294
rhand -18.1064 -7.02971
rfingers 7.12502
rthumb 8.16764 -36.8519
lclavicle -6.75868e-015 -3.29983e-014
lhumerus -46.3786 2.37081 56.5077
lradius 71.521
lwrist 7.52371
lhand -26.3477 -19.6948
lfingers 7.12502
lthumb 0.209937 10.2848
rfemur -9.85579 -2.41673 27.3209
rtibia 49.3038
rfoot 37.8403 -11.0416
rtoes 16.4313
lfemur -23.668 -1.21028 -13.5304
ltibia 29.2022
lfoot -24.0512 2.35274
ltoes -12.1264
520
root 0.0946521 19.0528 6.55764 2.89856 12.2788 -12.6525
lowerback 12.0191 0.593544 4.27931
upperback -0.559836 1.74874 4.42735
thorax -7.37898 0.786048 1.96557
lowerneck -20.2469 -2.41126 1.61398
upperneck 15.5053 -3.44858 -1.54867
head 8.06712 -1.69753 -1.21533
rclavicle 5.49143e-015 -4.13472e-014
rhumerus -55.6001 9.22127 -81.0674
rradius 53.3349
rwrist -13.2049
rhand -18.132 -6.89652
rfingers 7.12502
rthumb 8.14291 -36.7196
lclavicle 5.49143e-015 -4.13472e-014
lhumerus -47.1182 3.56082 56.0529
lradius 69.5746
lwrist 7.53725
lhand -26.2401 -19.6069
lfingers 7.12502
lthumb 0.313802 10.3726
rfemur -8.41375 -2.60456 28.2676
rtibia 48.9523
rfoot 38.0046 -10.7422
rtoes 15.7388
lfemur -25.075 -1.10319 -13.0642
ltibia 28.5048
lfoot -24.5096 4.36307
ltoes -11.3095
